<svg width="42" height="28" viewBox="0 0 42 28" fill="none" xmlns="http://www.w3.org/2000/svg">
<path d="M17.7981 27.0057C18.5683 27.2392 19.3954 26.7538 19.3954 26.0533V2.8634C19.3954 2.60533 19.2813 2.34725 19.0389 2.18749C17.6413 1.22893 14.4325 0 10.2682 0C6.66717 0 3.3015 0.817237 1.29065 1.48086C0.484885 1.75122 0 2.43942 0 3.18293V25.9365C0 26.6678 0.912725 27.1778 1.71849 26.9504C3.96465 26.3052 7.52285 25.5617 10.2682 25.5617C12.6855 25.5617 15.9014 26.422 17.7981 27.0057ZM23.2745 27.0057C25.1713 26.422 28.3872 25.5617 30.8045 25.5617C33.5498 25.5617 37.108 26.3052 39.3541 26.9504C40.1599 27.1839 41.0726 26.6678 41.0726 25.9365V3.18293C41.0726 2.43942 40.5878 1.75122 39.782 1.487C37.7711 0.817238 34.4055 0 30.8045 0C26.6402 0 23.4314 1.22893 22.0338 2.18749C21.7984 2.34725 21.6772 2.60533 21.6772 2.8634V26.0533C21.6772 26.7538 22.5115 27.2392 23.2745 27.0057Z" fill="white"/>
</svg>
