<svg width="50" height="50" viewBox="0 0 50 50" fill="none" xmlns="http://www.w3.org/2000/svg">
<g clip-path="url(#clip0_117_753)">
<path d="M36.4582 1.91064C34.1122 1.94713 31.8175 2.60201 29.8056 3.80913C27.7937 5.01625 26.136 6.73287 24.9998 8.78564C23.8637 6.73287 22.2059 5.01625 20.1941 3.80913C18.1822 2.60201 15.8874 1.94713 13.5415 1.91064C9.80179 2.07313 6.27839 3.70909 3.74105 6.46113C1.20371 9.21317 -0.141315 12.8576 -0.000168274 16.5981C-0.000168274 30.7127 22.8248 47.0148 23.7957 47.7065L24.9998 48.5586L26.204 47.7065C27.1748 47.019 49.9998 30.7127 49.9998 16.5981C50.141 12.8576 48.796 9.21317 46.2586 6.46113C43.7213 3.70909 40.1979 2.07313 36.4582 1.91064Z" fill="#9D244D"/>
</g>
<defs>
<clipPath id="clip0_117_753">
<rect width="50" height="50" fill="white"/>
</clipPath>
</defs>
</svg>
