<svg width="50" height="48" viewBox="0 0 50 48" fill="none" xmlns="http://www.w3.org/2000/svg">
<path d="M36.4582 0.910645C34.1122 0.947134 31.8175 1.60201 29.8056 2.80913C27.7937 4.01625 26.136 5.73287 24.9998 7.78564C23.8637 5.73287 22.2059 4.01625 20.1941 2.80913C18.1822 1.60201 15.8874 0.947134 13.5415 0.910645C9.80179 1.07313 6.27839 2.70909 3.74105 5.46113C1.20371 8.21317 -0.141315 11.8576 -0.000168274 15.5981C-0.000168274 29.7127 22.8248 46.0148 23.7957 46.7065L24.9998 47.5586L26.204 46.7065C27.1748 46.019 49.9998 29.7127 49.9998 15.5981C50.141 11.8576 48.796 8.21317 46.2586 5.46113C43.7213 2.70909 40.1979 1.07313 36.4582 0.910645Z" fill="#9D244D"/>
</svg>
