<svg width="50" height="50" viewBox="0 0 50 50" fill="none" xmlns="http://www.w3.org/2000/svg">
<g clip-path="url(#clip0_25_1058)">
<path d="M0.00056655 24.9709C-0.0206964 30.3134 4.29305 34.6616 9.6356 34.6828C12.0961 34.6926 14.4678 33.7644 16.2681 32.0872L30.6837 38.5959C30.5835 39.1349 30.5286 39.6812 30.5193 40.2293C30.5024 45.6087 34.8493 49.9832 40.2286 50.0002C45.6079 50.0173 49.9824 45.6703 49.9995 40.291C50.0166 34.9116 45.6696 30.5371 40.2902 30.5201C37.0763 30.5099 34.0643 32.0858 32.2402 34.7319L18.6963 28.6164C19.6583 26.2935 19.6621 23.6843 18.7068 21.3587L32.2319 15.212C35.2774 19.6169 41.3172 20.7186 45.722 17.673C50.1269 14.6275 51.2285 8.58782 48.183 4.18298C45.1374 -0.22186 39.0977 -1.32363 34.6928 1.72194C32.0696 3.53573 30.506 6.52337 30.5109 9.71262C30.5197 10.2615 30.5754 10.8086 30.6774 11.3481L16.2993 17.8817C12.4038 14.2238 6.28055 14.4164 2.62264 18.3119C0.929698 20.115 -0.00860187 22.4977 0.00056655 24.9709Z" fill="#9D244D"/>
</g>
<defs>
<clipPath id="clip0_25_1058">
<rect width="50" height="50" fill="white"/>
</clipPath>
</defs>
</svg>
