<svg width="26" height="26" viewBox="0 0 26 26" fill="none" xmlns="http://www.w3.org/2000/svg">
<g clip-path="url(#clip0_103_622)" filter="url(#filter0_i_103_622)">
<path d="M24.3747 1.08337H12.458C11.5599 1.08337 10.833 1.81137 10.833 2.70837C10.833 3.60537 11.5599 4.33337 12.458 4.33337H24.3747C25.2728 4.33337 25.9997 3.60537 25.9997 2.70837C25.9997 1.81137 25.2728 1.08337 24.3747 1.08337Z" fill="white"/>
<path d="M20.0413 7.58337H12.458C11.5599 7.58337 10.833 8.31137 10.833 9.20837C10.833 10.1054 11.5599 10.8334 12.458 10.8334H20.0413C20.9394 10.8334 21.6663 10.1054 21.6663 9.20837C21.6663 8.31137 20.9394 7.58337 20.0413 7.58337Z" fill="white"/>
<path d="M15.708 14.0834H12.458C11.5599 14.0834 10.833 14.8114 10.833 15.7084C10.833 16.6054 11.5599 17.3334 12.458 17.3334H15.708C16.6061 17.3334 17.333 16.6054 17.333 15.7084C17.333 14.8114 16.6061 14.0834 15.708 14.0834Z" fill="white"/>
<path d="M9.93601 19.9485H7.58301V1.625C7.58301 0.728 6.85609 0 5.95801 0C5.05993 0 4.33301 0.728 4.33301 1.625V19.9485H2.16634C1.56834 19.9485 1.08301 20.4338 1.08301 21.0318C1.08301 21.3189 1.19676 21.5941 1.40042 21.7978L5.28526 25.6826C5.70884 26.1051 6.39459 26.1051 6.81709 25.6826L10.7019 21.7978C11.1244 21.3742 11.1244 20.6884 10.7019 20.2659C10.4993 20.0633 10.2231 19.9485 9.93601 19.9485Z" fill="white"/>
</g>
<defs>
<filter id="filter0_i_103_622" x="0" y="0" width="26" height="28" filterUnits="userSpaceOnUse" color-interpolation-filters="sRGB">
<feFlood flood-opacity="0" result="BackgroundImageFix"/>
<feBlend mode="normal" in="SourceGraphic" in2="BackgroundImageFix" result="shape"/>
<feColorMatrix in="SourceAlpha" type="matrix" values="0 0 0 0 0 0 0 0 0 0 0 0 0 0 0 0 0 0 127 0" result="hardAlpha"/>
<feOffset dy="2"/>
<feGaussianBlur stdDeviation="1"/>
<feComposite in2="hardAlpha" operator="arithmetic" k2="-1" k3="1"/>
<feColorMatrix type="matrix" values="0 0 0 0 0 0 0 0 0 0 0 0 0 0 0 0 0 0 0.25 0"/>
<feBlend mode="normal" in2="shape" result="effect1_innerShadow_103_622"/>
</filter>
<clipPath id="clip0_103_622">
<rect width="26" height="26" fill="white"/>
</clipPath>
</defs>
</svg>
