<svg width="30" height="30" viewBox="0 0 30 30" fill="none" xmlns="http://www.w3.org/2000/svg">
<path d="M24.375 11.8902C24.375 14.5141 23.502 16.9379 22.0313 18.9043L29.4492 26.1471C30.1816 26.8617 30.1816 28.0221 29.4492 28.7367C28.7168 29.4512 27.5273 29.4512 26.7949 28.7367L19.377 21.4939C17.3613 22.9345 14.877 23.7805 12.1875 23.7805C5.45508 23.7805 0 18.4585 0 11.8902C0 5.32203 5.45508 0 12.1875 0C18.9199 0 24.375 5.32203 24.375 11.8902ZM12.1875 20.122C13.2955 20.122 14.3927 19.909 15.4164 19.4954C16.4401 19.0817 17.3702 18.4753 18.1537 17.7109C18.9372 16.9466 19.5587 16.0391 19.9827 15.0404C20.4068 14.0417 20.625 12.9712 20.625 11.8902C20.625 10.8092 20.4068 9.73882 19.9827 8.74011C19.5587 7.74139 18.9372 6.83393 18.1537 6.06955C17.3702 5.30516 16.4401 4.69882 15.4164 4.28514C14.3927 3.87146 13.2955 3.65854 12.1875 3.65854C11.0795 3.65854 9.98229 3.87146 8.95861 4.28514C7.93492 4.69882 7.00478 5.30516 6.22129 6.06955C5.43779 6.83393 4.81629 7.74139 4.39227 8.74011C3.96824 9.73882 3.75 10.8092 3.75 11.8902C3.75 12.9712 3.96824 14.0417 4.39227 15.0404C4.81629 16.0391 5.43779 16.9466 6.22129 17.7109C7.00478 18.4753 7.93492 19.0817 8.95861 19.4954C9.98229 19.909 11.0795 20.122 12.1875 20.122Z" fill="white"/>
</svg>
